<?xml version="1.0" encoding="utf-8"?>
<!-- Generator: Adobe Illustrator 23.0.2, SVG Export Plug-In . SVG Version: 6.00 Build 0)  -->
<svg version="1.1" xmlns="http://www.w3.org/2000/svg" xmlns:xlink="http://www.w3.org/1999/xlink" x="0px" y="0px"
	 viewBox="0 0 32 32" style="enable-background:new 0 0 32 32;" xml:space="preserve">
<style type="text/css">
	.st0{fill:#005644;}
</style>
<g id="图层_1">
	<g>
		<path class="st0" d="M8.31,21.5c-0.1-0.29-0.05-0.63,0.13-1.02l1.67-5.84c0.3-0.67,0.24-1.09-0.16-1.26
			c-0.33-0.14-0.9-0.05-1.72,0.26c-0.04,0.01-0.07,0.01-0.09,0c-0.05-0.02-0.09-0.06-0.1-0.11c-0.02-0.05,0-0.09,0.04-0.11
			c0.56-0.27,1.06-0.45,1.49-0.53c0.43-0.08,0.83-0.05,1.18,0.1c0.34,0.14,0.55,0.35,0.62,0.61s0.02,0.61-0.16,1.05l-1.65,5.83
			c-0.14,0.34-0.2,0.62-0.18,0.82c0.02,0.2,0.13,0.35,0.33,0.43c0.34,0.14,0.9,0.06,1.68-0.26l0.05,0c0.05,0.02,0.09,0.06,0.12,0.12
			c0.03,0.06,0.03,0.09-0.01,0.1c-0.58,0.28-1.07,0.46-1.47,0.54c-0.4,0.08-0.77,0.05-1.1-0.09C8.62,22,8.4,21.79,8.31,21.5z
			 M10.39,8.68c-0.09-0.17-0.09-0.36,0-0.57c0.08-0.19,0.21-0.31,0.39-0.36c0.18-0.05,0.4-0.03,0.65,0.08
			c0.24,0.1,0.4,0.23,0.48,0.4c0.08,0.17,0.09,0.34,0.01,0.53c-0.09,0.21-0.22,1.34-0.4,1.4c-0.18,0.06-0.38,0.03-0.62-0.06
			C10.65,9.98,10.48,8.85,10.39,8.68z"/>
	</g>
	<g>
		<path class="st0" d="M27.13,4c0.27,0,0.47,0.03,0.6,0.1c0.13,0.07,0.22,0.16,0.25,0.26S28,4.58,27.95,4.7
			c-0.06,0.12-0.14,0.24-0.25,0.34c-0.11,0.1-0.24,0.19-0.4,0.26c-0.15,0.07-0.31,0.1-0.47,0.1c-0.23,0-0.47-0.02-0.71-0.05
			c-0.25-0.03-0.49-0.04-0.74-0.02c-0.25,0.02-0.5,0.08-0.74,0.2s-0.48,0.32-0.71,0.61c-0.13,0.16-0.27,0.42-0.41,0.78
			c-0.14,0.36-0.28,0.77-0.42,1.24c-0.14,0.47-0.27,0.99-0.4,1.55c-0.13,0.56-0.26,1.13-0.37,1.71h3.83c0.13,0,0.19,0.01,0.18,0.04
			c-0.01,0.03-0.06,0.06-0.15,0.1c-0.09,0.04-0.22,0.09-0.37,0.14s-0.31,0.1-0.47,0.14c-0.16,0.04-0.31,0.08-0.46,0.1
			C24.73,11.99,24.62,12,24.54,12h-2.37c-0.15,0.78-0.29,1.56-0.43,2.32c-0.14,0.76-0.27,1.48-0.39,2.17
			c-0.12,0.68-0.24,1.32-0.36,1.91c-0.11,0.59-0.23,1.1-0.35,1.53c-0.13,0.4-0.3,0.87-0.51,1.43c-0.21,0.56-0.46,1.13-0.77,1.73
			c-0.3,0.6-0.65,1.19-1.05,1.78c-0.4,0.59-0.84,1.11-1.34,1.58c-0.5,0.47-1.05,0.84-1.66,1.13S7.11,28,6.38,28
			c-0.18,0-0.31-0.04-0.4-0.12c-0.09-0.08-0.14-0.17-0.15-0.29c-0.01-0.11,0.01-0.24,0.07-0.37c0.06-0.14,0.15-0.26,0.26-0.38
			s0.26-0.21,0.42-0.29c0.16-0.08,0.35-0.12,0.56-0.12c0.28,0,7.49,0.02,7.74,0.07c0.25,0.05,0.49,0.08,0.7,0.1
			c0.22,0.02,0.42,0.01,0.62-0.03c0.19-0.04,0.38-0.14,0.55-0.3c0.31-0.28,0.6-0.65,0.87-1.12c0.27-0.47,0.52-1,0.76-1.6
			c0.23-0.59,0.45-1.24,0.64-1.93s0.37-1.4,0.54-2.12s0.31-1.45,0.45-2.17c0.14-0.72,0.26-1.41,0.37-2.06
			c0.11-0.65,0.21-1.26,0.31-1.82c0.09-0.56,0.18-1.04,0.26-1.45H18.2c-0.09,0-0.12-0.03-0.07-0.09c0.05-0.06,0.13-0.13,0.23-0.19
			s0.23-0.13,0.36-0.19c0.13-0.06,0.24-0.09,0.31-0.09h1.99c0.16-0.59,0.35-1.19,0.59-1.78c0.24-0.6,0.51-1.17,0.82-1.72
			c0.31-0.55,0.65-1.07,1.01-1.54c0.36-0.48,0.74-0.89,1.15-1.24c0.4-0.35,0.82-0.63,1.24-0.83S26.69,4,27.13,4z"/>
	</g>
</g>
<g id="图层_2">
</g>
</svg>
